Coordinates
version=1
nRows=32
nColumns=12
inDegrees=yes

Units are S.I. units (second, meters, Newtons, ...)
Angles are in degrees

endheader
time	SC_y	SC_z	SC_x	AC_y	AC_z	AC_x	GH_y	GH_z	GH_yy	EL_x	PS_y
       0.0              -29.12          13.56          36.19          68.97          7.985          11.51         -71.33          89.62           61.8          131.6          151.5
  0.008325              -29.12          13.56          36.19          68.96          7.983          11.51         -71.34          89.62          61.82          131.6          151.5
   0.01665              -29.12          13.56           36.2          68.96          7.981          11.51         -71.34          89.61          61.84          131.6          151.4
   0.02498              -29.12          13.56          36.21          68.95          7.978          11.51         -71.35          89.61          61.86          131.6          151.4
    0.0333              -29.11          13.56          36.21          68.95          7.976          11.52         -71.35           89.6          61.88          131.6          151.4
   0.04163              -29.11          13.56          36.22          68.94          7.973          11.52         -71.36           89.6           61.9          131.6          151.4
   0.04995              -29.11          13.56          36.23          68.94           7.97          11.52         -71.36          89.59          61.92          131.6          151.4
   0.05828               -29.1          13.56          36.24          68.93          7.967          11.52         -71.37          89.59          61.95          131.6          151.3
    0.0666               -29.1          13.56          36.25          68.93          7.963          11.52         -71.38          89.58          61.97          131.6          151.3
   0.07493               -29.1          13.56          36.26          68.92          7.959          11.52         -71.39          89.57           62.0          131.5          151.3
   0.08325              -29.09          13.56          36.27          68.91          7.956          11.52          -71.4          89.56          62.03          131.5          151.2
   0.09158              -29.09          13.56          36.28           68.9          7.951          11.52         -71.41          89.56          62.06          131.5          151.2
   0.09991              -29.09          13.56           36.3           68.9          7.947          11.52         -71.42          89.55           62.1          131.5          151.2
    0.1082              -29.08          13.56          36.31          68.89          7.942          11.52         -71.43          89.54          62.14          131.5          151.1
    0.1166              -29.08          13.56          36.33          68.88          7.936          11.52         -71.44          89.53          62.18          131.5          151.1
    0.1249              -29.07          13.56          36.34          68.87          7.931          11.52         -71.45          89.52          62.22          131.4          151.0
    0.1332              -29.06          13.56          36.36          68.86          7.924          11.52         -71.46           89.5          62.27          131.4          151.0
    0.1415              -29.06          13.56          36.38          68.84          7.917          11.53         -71.48          89.49          62.33          131.4          150.9
    0.1499              -29.05          13.56           36.4          68.83           7.91          11.53          -71.5          89.48          62.38          131.4          150.8
    0.1582              -29.04          13.55          36.43          68.81          7.902          11.53         -71.51          89.46          62.45          131.3          150.8
    0.1665              -29.03          13.55          36.45           68.8          7.893          11.53         -71.53          89.44          62.52          131.3          150.7
    0.1748              -29.02          13.55          36.48          68.78          7.883          11.53         -71.55          89.42          62.59          131.2          150.6
    0.1832              -29.01          13.55          36.51          68.76          7.872          11.53         -71.58           89.4          62.68          131.2          150.5
    0.1915               -29.0          13.55          36.55          68.74          7.859          11.54         -71.61          89.38          62.77          131.2          150.4
    0.1998              -28.99          13.55          36.59          68.71          7.846          11.54         -71.63          89.35          62.88          131.1          150.3
    0.2081              -28.98          13.55          36.63          68.68          7.831          11.54         -71.67          89.32          62.99          131.0          150.2
    0.2165              -28.96          13.55          36.68          68.65          7.814          11.54          -71.7          89.29          63.12          131.0          150.0
    0.2248              -28.94          13.55          36.73          68.62          7.795          11.55         -71.75          89.25          63.27          130.9          149.8
    0.2331              -28.92          13.55           36.8          68.58          7.773          11.55         -71.79          89.21          63.44          130.8          149.7
    0.2414               -28.9          13.55          36.87          68.53          7.749          11.56         -71.85          89.16          63.63          130.7          149.5
    0.2498              -28.87          13.55          36.95          68.48          7.721          11.56         -71.91          89.11          63.84          130.6          149.2
    0.2581              -28.84          13.55          37.04          68.42          7.689          11.57         -71.98          89.05          64.09          130.5          148.9
